<?xml version="1.0" encoding="utf-8"?>
<!-- Generator: Adobe Illustrator 16.0.0, SVG Export Plug-In . SVG Version: 6.00 Build 0)  -->
<!DOCTYPE svg PUBLIC "-//W3C//DTD SVG 1.1//EN" "http://www.w3.org/Graphics/SVG/1.1/DTD/svg11.dtd">
<svg version="1.1" id="Layer_1" xmlns="http://www.w3.org/2000/svg" xmlns:xlink="http://www.w3.org/1999/xlink" x="0px" y="0px"
	 width="31.393px" height="28px" viewBox="0 0 31.393 28" enable-background="new 0 0 31.393 28" xml:space="preserve">
<g>
	<g>
		<g>
			<path fill="#FFFFFF" d="M15.696,24.766c-1.16,0-2.104-0.943-2.104-2.103c0-1.16,0.943-2.104,2.104-2.104
				c1.159,0,2.104,0.943,2.104,2.104C17.8,23.822,16.855,24.766,15.696,24.766z M15.696,21.526c-0.627,0-1.137,0.51-1.137,1.137
				c0,0.626,0.51,1.136,1.137,1.136c0.626,0,1.137-0.51,1.137-1.136C16.833,22.036,16.322,21.526,15.696,21.526z"/>
		</g>
		<g>
			<path fill="#FFFFFF" d="M15.696,19.583c-0.238,0-0.441-0.174-0.478-0.41c-0.167-1.08-1.626-10.579-1.626-11.484
				c0-1.16,0.943-2.104,2.104-2.104c1.159,0,2.104,0.943,2.104,2.104c0,0.905-1.46,10.404-1.626,11.484
				C16.138,19.409,15.935,19.583,15.696,19.583z M15.696,6.552c-0.627,0-1.137,0.51-1.137,1.137c0,0.485,0.575,4.469,1.137,8.197
				c0.561-3.729,1.137-7.712,1.137-8.197C16.833,7.062,16.322,6.552,15.696,6.552z"/>
		</g>
	</g>
	<g>
		<path fill="#FFFFFF" d="M28.144,28H3.249c-1.371,0-2.408-0.49-2.922-1.38c-0.514-0.891-0.42-2.033,0.266-3.221l5.795-10.038
			c0.135-0.231,0.43-0.311,0.66-0.177c0.232,0.133,0.312,0.429,0.178,0.66L1.43,23.883c-0.505,0.876-0.6,1.676-0.266,2.254
			s1.074,0.897,2.085,0.897h24.895c1.01,0,1.75-0.319,2.084-0.897s0.24-1.378-0.266-2.254L17.515,2.323
			c-0.505-0.875-1.15-1.357-1.818-1.357s-1.314,0.482-1.818,1.357l-4.715,8.166c-0.134,0.231-0.43,0.311-0.66,0.177
			c-0.231-0.134-0.311-0.429-0.178-0.66L13.04,1.84C13.726,0.654,14.669,0,15.696,0s1.971,0.653,2.656,1.84L30.8,23.399
			c0.686,1.188,0.779,2.331,0.266,3.221S29.514,28,28.144,28z"/>
	</g>
</g>
</svg>
