<?xml version="1.0" encoding="utf-8"?>
<!-- Generator: Adobe Illustrator 16.0.0, SVG Export Plug-In . SVG Version: 6.00 Build 0)  -->
<!DOCTYPE svg PUBLIC "-//W3C//DTD SVG 1.1//EN" "http://www.w3.org/Graphics/SVG/1.1/DTD/svg11.dtd">
<svg version="1.1" id="Layer_1" xmlns="http://www.w3.org/2000/svg" xmlns:xlink="http://www.w3.org/1999/xlink" x="0px" y="0px"
	 width="28.607px" height="28px" viewBox="0 0 28.607 28" enable-background="new 0 0 28.607 28" xml:space="preserve">
<g>
	<g>
		<g>
			<path fill="#FFFFFF" d="M1.713,10.351c-0.068,0-0.138-0.016-0.201-0.046c-0.122-0.06-0.212-0.171-0.244-0.302L0.014,4.876
				C-0.047,4.63,0.104,4.382,0.35,4.323c0.246-0.062,0.493,0.09,0.553,0.335l1.123,4.591L6.547,7.2
				c0.23-0.104,0.502-0.003,0.606,0.228s0.002,0.502-0.229,0.607L1.901,10.31C1.842,10.337,1.777,10.351,1.713,10.351z"/>
		</g>
		<g>
			<path fill="#FFFFFF" d="M14.633,28c-1.291,0-2.588-0.18-3.863-0.544c-5.061-1.444-8.849-5.55-9.885-10.712
				c-0.05-0.248,0.11-0.49,0.358-0.539c0.247-0.049,0.489,0.11,0.539,0.358c0.969,4.825,4.509,8.662,9.239,10.013
				c3.36,0.959,6.893,0.552,9.945-1.146c3.053-1.698,5.262-4.483,6.221-7.843c1.979-6.934-2.053-14.186-8.987-16.166
				C11.516-0.487,4.509,3.164,2.248,9.73c-0.082,0.239-0.342,0.367-0.582,0.283C1.428,9.931,1.301,9.671,1.383,9.432
				c2.418-7.027,9.916-10.933,17.068-8.891c7.421,2.119,11.734,9.878,9.617,17.298c-1.025,3.595-3.39,6.574-6.656,8.391
				C19.303,27.403,16.98,28,14.633,28z"/>
		</g>
	</g>
	<g>
		<g>
			<path fill="#FFFFFF" d="M14.344,14.457c-0.088,0-0.176-0.025-0.252-0.076c-0.129-0.084-0.206-0.229-0.206-0.382V6.832
				c0-0.252,0.205-0.457,0.458-0.457s0.457,0.205,0.457,0.457V13.3l5.778-2.507c0.231-0.101,0.501,0.006,0.602,0.237
				c0.101,0.232-0.005,0.502-0.237,0.603l-6.418,2.785C14.468,14.444,14.406,14.457,14.344,14.457z"/>
		</g>
		<g>
			<path fill="#FFFFFF" d="M14.344,24.634c-5.365,0-9.904-4.01-10.557-9.328c-0.03-0.25,0.148-0.479,0.398-0.51
				c0.252-0.03,0.48,0.148,0.511,0.398c0.597,4.859,4.743,8.523,9.647,8.523c5.359,0,9.72-4.36,9.72-9.72
				c0-5.36-4.36-9.721-9.72-9.721c-2.066,0-4.039,0.64-5.705,1.85C8.434,6.276,8.147,6.23,8,6.026
				c-0.149-0.204-0.104-0.491,0.101-0.64c1.823-1.324,3.982-2.023,6.243-2.023c5.864,0,10.636,4.771,10.636,10.636
				C24.979,19.863,20.208,24.634,14.344,24.634z"/>
		</g>
	</g>
</g>
</svg>
