<?xml version="1.0" encoding="utf-8"?>
<!-- Generator: Adobe Illustrator 16.0.0, SVG Export Plug-In . SVG Version: 6.00 Build 0)  -->
<!DOCTYPE svg PUBLIC "-//W3C//DTD SVG 1.1//EN" "http://www.w3.org/Graphics/SVG/1.1/DTD/svg11.dtd">
<svg version="1.1" id="Layer_1" xmlns="http://www.w3.org/2000/svg" xmlns:xlink="http://www.w3.org/1999/xlink" x="0px" y="0px"
	 width="24.597px" height="28px" viewBox="0 0 24.597 28" enable-background="new 0 0 24.597 28" xml:space="preserve">
<g>
	<g>
		<path fill="#FFFFFF" d="M12.299,22.911c-4.939,0-8.959-4.019-8.959-8.959c0-4.939,4.02-8.959,8.959-8.959s8.959,4.02,8.959,8.959
			C21.258,18.893,17.238,22.911,12.299,22.911z M12.299,5.874c-4.453,0-8.077,3.625-8.077,8.078c0,4.455,3.624,8.078,8.077,8.078
			s8.077-3.623,8.077-8.078C20.376,9.499,16.752,5.874,12.299,5.874z"/>
	</g>
	<g>
		<path fill="#FFFFFF" d="M18.363,28c-0.85,0-1.541-0.692-1.541-1.542V25.39c-1.441,0.571-2.959,0.861-4.523,0.861
			s-3.083-0.29-4.523-0.861v1.068c0,0.85-0.691,1.542-1.541,1.542s-1.541-0.692-1.541-1.542v-2.842C1.708,21.267,0,17.757,0,13.952
			c0-2.601,0.803-5.086,2.321-7.189c0.142-0.197,0.417-0.241,0.616-0.1c0.197,0.143,0.241,0.419,0.099,0.616
			c-1.409,1.951-2.153,4.259-2.153,6.673c0,3.605,1.651,6.925,4.531,9.105c0.128,0.098,0.192,0.256,0.17,0.414
			c-0.005,0.033-0.009,0.065-0.009,0.1v2.887c0,0.364,0.296,0.66,0.659,0.66s0.659-0.296,0.659-0.66V24.72
			c0-0.15,0.077-0.289,0.204-0.371c0.127-0.08,0.285-0.092,0.422-0.028c1.507,0.696,3.115,1.049,4.779,1.049
			s3.271-0.353,4.779-1.049c0.137-0.062,0.295-0.052,0.422,0.029s0.203,0.221,0.203,0.371v1.737c0,0.364,0.297,0.66,0.66,0.66
			s0.659-0.296,0.659-0.66v-2.887c0-0.027-0.003-0.058-0.009-0.096c-0.023-0.16,0.041-0.32,0.17-0.418
			c2.88-2.181,4.531-5.5,4.531-9.105c0-3.601-1.648-6.917-4.521-9.098c-0.12-0.092-0.186-0.236-0.174-0.387
			c0.001-0.016,0.003-0.027,0.003-0.039V1.541c0-0.363-0.296-0.659-0.659-0.659s-0.66,0.296-0.66,0.659v1.644
			c0,0.15-0.076,0.291-0.203,0.371c-0.127,0.081-0.286,0.092-0.422,0.029c-1.508-0.696-3.115-1.049-4.779-1.049
			S9.026,2.889,7.52,3.585C7.383,3.647,7.224,3.637,7.098,3.556c-0.127-0.08-0.204-0.221-0.204-0.371V1.541
			c0-0.363-0.296-0.659-0.659-0.659S5.575,1.178,5.575,1.541v2.888c0,0.012,0.001,0.021,0.002,0.032L5.138,4.503L4.698,4.534
			C4.695,4.493,4.693,4.46,4.693,4.429V1.541C4.693,0.691,5.385,0,6.234,0s1.541,0.691,1.541,1.541v0.975
			c1.44-0.572,2.959-0.861,4.523-0.861s3.082,0.289,4.523,0.861V1.541c0-0.85,0.691-1.541,1.541-1.541s1.541,0.691,1.541,1.541
			v2.748c2.985,2.351,4.693,5.859,4.693,9.663c0,3.805-1.707,7.314-4.693,9.664v2.842C19.904,27.308,19.213,28,18.363,28z"/>
	</g>
	<g>
		<g>
			<path fill="#FFFFFF" d="M12.236,20.657c-0.835,0-1.514-0.679-1.514-1.514c0-0.836,0.679-1.515,1.514-1.515
				c0.834,0,1.514,0.679,1.514,1.515C13.75,19.979,13.07,20.657,12.236,20.657z M12.236,18.325c-0.451,0-0.818,0.367-0.818,0.818
				s0.367,0.818,0.818,0.818s0.818-0.367,0.818-0.818S12.688,18.325,12.236,18.325z"/>
		</g>
		<g>
			<path fill="#FFFFFF" d="M12.236,16.926c-0.172,0-0.318-0.126-0.344-0.296c-0.12-0.777-1.17-7.615-1.17-8.268
				c0-0.835,0.679-1.515,1.514-1.515c0.834,0,1.514,0.68,1.514,1.515c0,0.652-1.051,7.49-1.17,8.268
				C12.554,16.8,12.408,16.926,12.236,16.926z M12.236,7.544c-0.451,0-0.818,0.367-0.818,0.818c0,0.35,0.414,3.217,0.818,5.902
				c0.404-2.686,0.818-5.553,0.818-5.902C13.055,7.911,12.688,7.544,12.236,7.544z"/>
		</g>
	</g>
</g>
</svg>
